<svg width="22" height="22" viewBox="0 0 22 22" fill="none" xmlns="http://www.w3.org/2000/svg">
<path d="M11 0C8.82441 0 6.69767 0.645139 4.88873 1.85383C3.07979 3.06253 1.66989 4.78049 0.83733 6.79048C0.00476623 8.80047 -0.213071 11.0122 0.211367 13.146C0.635804 15.2798 1.68345 17.2398 3.22183 18.7782C4.76021 20.3165 6.72022 21.3642 8.85401 21.7886C10.9878 22.2131 13.1995 21.9952 15.2095 21.1627C17.2195 20.3301 18.9375 18.9202 20.1462 17.1113C21.3549 15.3023 22 13.1756 22 11C21.9967 8.08363 20.8367 5.28765 18.7745 3.22547C16.7123 1.16328 13.9164 0.00329961 11 0ZM11 20.5333C9.48567 20.5333 7.9002 18.5812 7.11334 15.4H14.8867C14.0998 18.5812 12.5143 20.5333 11 20.5333ZM6.8156 13.9333C6.52814 11.9883 6.52814 10.0117 6.8156 8.06666H15.1844C15.3298 9.03764 15.4019 10.0182 15.4 11C15.4019 11.9818 15.3298 12.9624 15.1844 13.9333H6.8156ZM1.46667 11C1.4672 10.0038 1.6246 9.0139 1.93307 8.06666H5.34307C5.06343 10.0122 5.06343 11.9878 5.34307 13.9333H1.93307C1.6246 12.9861 1.4672 11.9962 1.46667 11ZM11 1.46667C12.5143 1.46667 14.0998 3.4188 14.8867 6.6H7.11334C7.9002 3.4188 9.48567 1.46667 11 1.46667ZM16.6569 8.06666H20.0669C20.6886 9.97281 20.6886 12.0272 20.0669 13.9333H16.6569C16.796 12.9617 16.8661 11.9815 16.8667 11C16.8661 10.0185 16.796 9.03827 16.6569 8.06666ZM19.4487 6.6H16.3929C16.0666 5.00501 15.4267 3.49072 14.5105 2.145C16.6358 2.99259 18.3875 4.5729 19.4487 6.6ZM7.48954 2.145C6.57329 3.49072 5.93342 5.00501 5.60707 6.6H2.55127C3.61249 4.5729 5.36423 2.99259 7.48954 2.145ZM2.55127 15.4H5.60707C5.93342 16.995 6.57329 18.5093 7.48954 19.855C5.36423 19.0074 3.61249 17.4271 2.55127 15.4ZM14.5105 19.855C15.4267 18.5093 16.0666 16.995 16.3929 15.4H19.4487C18.3875 17.4271 16.6358 19.0074 14.5105 19.855Z" fill="#374957"/>
</svg>
